<svg width="70" height="71" viewBox="0 0 70 71" fill="none" xmlns="http://www.w3.org/2000/svg">
<g clip-path="url(#clip0_198_42)">
<path d="M35.1321 0.693359C31.2859 0.693359 28.168 3.81125 28.168 7.65748C28.168 11.5037 31.2859 14.6216 35.1321 14.6216C38.9767 14.6178 42.0924 11.5021 42.0962 7.65748C42.0962 3.81125 38.9783 0.693359 35.1321 0.693359ZM35.1321 12.3002C32.568 12.3002 30.4893 10.2216 30.4893 7.65748C30.4893 5.09338 32.568 3.01473 35.1321 3.01473C37.6962 3.01473 39.7748 5.09338 39.7748 7.65748C39.7748 10.2216 37.6962 12.3002 35.1321 12.3002Z" fill="#D8AAF8"/>
<path d="M39.7764 15.7832H39.5025L39.2576 15.9051C36.6604 17.1982 33.6069 17.1982 31.0098 15.9051L30.7649 15.7832H30.4909C27.2874 15.787 24.6913 18.3831 24.6875 21.5866V28.5508C24.6875 30.4739 26.2464 32.0328 28.1696 32.0328H42.0978C44.0209 32.0328 45.5798 30.4739 45.5798 28.5508V21.5866C45.5761 18.3831 42.9799 15.787 39.7764 15.7832ZM43.2585 28.5508C43.2585 29.1917 42.7388 29.7114 42.0978 29.7114H28.1696C27.5286 29.7114 27.0089 29.1917 27.0089 28.5508V21.5866C27.0092 19.7597 28.4213 18.2436 30.2437 18.1139C33.3449 19.5531 36.9226 19.5531 40.0236 18.1139C41.8459 18.2436 43.2582 19.7597 43.2585 21.5866V28.5508Z" fill="#D8AAF8"/>
<path d="M59.5071 38.998C55.6609 38.998 52.543 42.1159 52.543 45.9622C52.543 49.8084 55.6609 52.9263 59.5071 52.9263C63.3533 52.9263 66.4712 49.8084 66.4712 45.9622C66.4674 42.1175 63.3517 39.0018 59.5071 38.998ZM59.5071 50.6049C56.943 50.6049 54.8643 48.5263 54.8643 45.9622C54.8643 43.3981 56.943 41.3194 59.5071 41.3194C62.0712 41.3194 64.1498 43.3981 64.1498 45.9622C64.1498 48.5263 62.0712 50.6049 59.5071 50.6049Z" fill="#D8AAF8"/>
<path d="M64.1553 54.0859H63.8814L63.6365 54.202C61.0393 55.495 57.9858 55.495 55.3887 54.202L55.1438 54.0859H54.8698C51.6663 54.0897 49.0702 56.6859 49.0664 59.8894V66.8535C49.0664 68.7766 50.6254 70.3355 52.5485 70.3355H66.4767C68.3998 70.3355 69.9588 68.7766 69.9588 66.8535V59.8894C69.955 56.6859 67.3588 54.0897 64.1553 54.0859ZM67.6374 66.8535C67.6374 67.4945 67.1177 68.0142 66.4767 68.0142H52.5485C51.9075 68.0142 51.3878 67.4945 51.3878 66.8535V59.8894C51.3881 58.0624 52.8002 56.5463 54.6226 56.4166C57.7238 57.8558 61.3013 57.8558 64.4026 56.4166C66.225 56.5463 67.6371 58.0624 67.6374 59.8894V66.8535Z" fill="#D8AAF8"/>
<path d="M10.7688 38.998C6.92258 38.998 3.80469 42.1159 3.80469 45.9622C3.80469 49.8084 6.92258 52.9263 10.7688 52.9263C14.615 52.9263 17.7329 49.8084 17.7329 45.9622C17.7291 42.1175 14.6134 39.0018 10.7688 38.998ZM10.7688 50.6049C8.2047 50.6049 6.12606 48.5263 6.12606 45.9622C6.12606 43.3981 8.2047 41.3194 10.7688 41.3194C13.3329 41.3194 15.4115 43.3981 15.4115 45.9622C15.4115 48.5263 13.3329 50.6049 10.7688 50.6049Z" fill="#D8AAF8"/>
<path d="M15.4014 54.0859H15.1275L14.8826 54.202C12.2854 55.495 9.23194 55.495 6.63476 54.202L6.38985 54.0859H6.11593C2.91244 54.0897 0.316272 56.6859 0.3125 59.8894V66.8535C0.3125 68.7766 1.87145 70.3355 3.79456 70.3355H17.7228C19.6459 70.3355 21.2048 68.7766 21.2048 66.8535V59.8894C21.2011 56.6859 18.6049 54.0897 15.4014 54.0859ZM18.8835 66.8535C18.8835 67.4945 18.3638 68.0142 17.7228 68.0142H3.79456C3.15357 68.0142 2.63387 67.4945 2.63387 66.8535V59.8894C2.63416 58.0624 4.04628 56.5463 5.8687 56.4166C8.96991 57.8558 12.5474 57.8558 15.6486 56.4166C17.4711 56.5463 18.8832 58.0624 18.8835 59.8894V66.8535Z" fill="#D8AAF8"/>
<path d="M46.6542 59.6442C46.6537 59.6429 46.6531 59.6416 46.6525 59.6401C46.4012 59.0503 45.7194 58.776 45.1298 59.0273C39.8886 61.2239 34.0677 61.6246 28.5749 60.1671L29.6613 59.8479C30.2768 59.6677 30.6296 59.0229 30.4494 58.4075C30.2692 57.792 29.6245 57.4392 29.009 57.6194L24.3663 58.9808C24.3489 58.9808 24.3361 59.0006 24.3198 59.0064C24.2123 59.0464 24.1114 59.1024 24.0204 59.1723C23.9801 59.1941 23.9413 59.2185 23.9043 59.2455C23.7819 59.3547 23.6848 59.4894 23.62 59.6401C23.557 59.7919 23.527 59.9552 23.5317 60.1195C23.56 60.2766 23.5988 60.4317 23.6478 60.5837C23.6548 60.6 23.6478 60.6186 23.6606 60.6348L25.982 65.0768C26.2788 65.6454 26.9803 65.8657 27.5489 65.5689C28.1175 65.272 28.3379 64.5706 28.041 64.002L27.0962 62.1959C33.3369 64.0719 40.0372 63.7073 46.0375 61.1652C46.6277 60.9156 46.9039 60.2345 46.6542 59.6442Z" fill="#D8AAF8"/>
<path d="M66.1313 31.2234C65.678 30.7703 64.9433 30.7703 64.4901 31.2234L62.8477 32.8658C61.8866 22.6996 55.4322 13.8776 46.034 9.88421C45.4442 9.63292 44.7625 9.90728 44.5112 10.4971C44.2599 11.0868 44.5342 11.7686 45.124 12.0199C53.5549 15.6031 59.4155 23.4336 60.4764 32.5327L59.1671 31.2234C58.7061 30.778 57.9713 30.7908 57.5259 31.2519C57.0915 31.7016 57.0915 32.4147 57.5259 32.8646L61.008 36.3467C61.4607 36.8005 62.1957 36.8015 62.6495 36.3487C62.6502 36.348 62.6509 36.3473 62.6515 36.3467L66.1336 32.8646C66.5861 32.4108 66.5851 31.6761 66.1313 31.2234Z" fill="#D8AAF8"/>
<path d="M25.8147 10.7445C25.8109 10.6767 25.8009 10.6096 25.7845 10.5437C25.7845 10.5332 25.7717 10.5263 25.7671 10.5147C25.7624 10.5031 25.7671 10.4949 25.7671 10.4857C25.7355 10.4292 25.6989 10.3755 25.658 10.3255C25.6204 10.2574 25.576 10.1933 25.5257 10.134C25.457 10.0732 25.381 10.0214 25.2993 9.9796C25.2586 9.94492 25.215 9.91344 25.1693 9.88558L20.5266 7.76501C19.9336 7.52155 19.2555 7.80491 19.012 8.39787C18.7818 8.95863 19.0219 9.60223 19.5632 9.87513L21.967 10.9743C12.9176 15.8174 7.27082 25.2507 7.27735 35.5147C7.27735 36.1557 7.79705 36.6754 8.43804 36.6754C9.07903 36.6754 9.59872 36.1557 9.59872 35.5147C9.59292 26.4769 14.3722 18.1114 22.1608 13.5267L21.3217 15.2804C21.045 15.8575 21.2874 16.5495 21.8637 16.8276C22.0202 16.9041 22.192 16.9439 22.3663 16.9437C22.812 16.9431 23.2179 16.6873 23.4109 16.2856L25.7323 11.4421C25.7323 11.4305 25.7323 11.4177 25.7416 11.4061C25.7717 11.3267 25.7928 11.2442 25.8042 11.16C25.8241 11.0975 25.8389 11.0335 25.8483 10.9685C25.8444 10.8929 25.8332 10.8179 25.8147 10.7445Z" fill="#D8AAF8"/>
</g>
<defs>
<clipPath id="clip0_198_42">
<rect width="69.6412" height="69.6412" fill="white" transform="translate(0.316406 0.701172)"/>
</clipPath>
</defs>
</svg>
