<svg width="70" height="71" viewBox="0 0 70 71" fill="none" xmlns="http://www.w3.org/2000/svg">
<g clip-path="url(#clip0_198_2)">
<path d="M47.2382 21.3427C50.9882 21.3427 54.0391 24.3936 54.0391 28.1436C54.0391 29.646 52.8212 30.8639 51.3188 30.8639C49.8163 30.8639 48.5984 29.646 48.5984 28.1436C48.5984 27.3936 47.9882 26.7834 47.2382 26.7834C46.4882 26.7834 45.878 27.3936 45.878 28.1436C45.878 29.646 44.6601 30.8639 43.1577 30.8639C41.6552 30.8639 40.4373 29.646 40.4373 28.1436C40.4373 24.3936 43.4882 21.3427 47.2382 21.3427ZM29.964 28.1436C29.964 24.3936 26.9131 21.3427 23.1631 21.3427C19.413 21.3427 16.3622 24.3936 16.3622 28.1436C16.3622 29.646 17.5801 30.8639 19.0825 30.8639C20.585 30.8639 21.8029 29.646 21.8029 28.1436C21.8029 27.3936 22.4131 26.7834 23.1631 26.7834C23.9131 26.7834 24.5232 27.3936 24.5232 28.1436C24.5232 29.646 25.7411 30.8639 27.2436 30.8639C28.746 30.8639 29.964 29.646 29.964 28.1436ZM48.1904 7.72784C48.1904 3.70307 51.1141 0.667969 54.9912 0.667969C56.7093 0.667969 58.0666 1.12308 59.1014 1.75611C60.1372 1.12526 61.4812 0.667969 63.1523 0.667969C67.0295 0.667969 69.9532 3.70307 69.9532 7.72784C69.9532 11.8681 66.608 14.3673 63.9203 16.3756C62.8072 17.2071 61.7561 17.9926 61.1924 18.6939C60.6761 19.3366 59.8962 19.7103 59.0718 19.7103C58.2474 19.7103 57.4675 19.3364 56.9511 18.6939C56.3875 17.9924 55.3363 17.2071 54.2233 16.3756C51.5356 14.3674 48.1904 11.8681 48.1904 7.72784V7.72784ZM53.6311 7.72784C53.6311 9.14148 55.5877 10.6034 57.4798 12.017C58.0123 12.4149 58.5522 12.8182 59.0718 13.2378C59.5914 12.8182 60.1312 12.4149 60.6637 12.017C62.5559 10.6033 64.5125 9.14148 64.5125 7.72784C64.5125 6.68363 64.0294 6.10868 63.1523 6.10868C62.0942 6.10868 61.6613 6.55904 61.5202 6.76225C61.1303 7.7949 60.1939 8.37828 59.0825 8.40249C57.9915 8.42398 57.0458 7.68976 56.599 6.69941C56.5145 6.56638 56.1402 6.10868 54.9912 6.10868C54.1142 6.10868 53.6311 6.68377 53.6311 7.72784V7.72784ZM69.9489 58.3265C69.9489 62.4731 66.577 64.9723 63.8676 66.9804C62.7448 67.8125 61.6843 68.5986 61.1156 69.301C60.599 69.9386 59.8222 70.3091 59.0016 70.3091C58.181 70.3091 57.4042 69.9386 56.8876 69.301C56.3188 68.5986 55.2582 67.8127 54.1356 66.9804C51.4262 64.9722 48.0545 62.4731 48.0545 58.3265C48.0545 54.3017 50.9925 51.2666 54.8883 51.2666C56.6217 51.2666 57.99 51.7254 59.0314 52.3624C60.0741 51.7277 61.4288 51.2666 63.115 51.2666C67.0109 51.2666 69.9489 54.3017 69.9489 58.3265V58.3265ZM64.5081 58.3265C64.5081 57.2823 64.0133 56.7073 63.115 56.7073C61.9042 56.7073 61.4657 57.3159 61.4657 57.316C61.0076 58.2952 60.0166 58.9142 58.9325 58.8828C57.8952 58.8566 56.9674 58.2431 56.534 57.3085C56.4509 57.1772 56.0705 56.7075 54.8881 56.7075C53.9899 56.7075 53.4951 57.2826 53.4951 58.3266C53.4951 59.7337 55.4676 61.1957 57.3751 62.6094C57.9193 63.0129 58.471 63.4217 59.0015 63.8477C59.5319 63.4219 60.0838 63.0129 60.6278 62.6094C62.5356 61.1955 64.5081 59.7336 64.5081 58.3265V58.3265ZM16.1298 52.1544C15.007 52.9866 13.9465 53.7725 13.3778 54.475C12.8612 55.1127 12.0844 55.4832 11.2637 55.4832C10.4429 55.4832 9.66628 55.1127 9.14968 54.475C8.58085 53.7728 7.52032 52.9867 6.39763 52.1544C3.68829 50.1464 0.316406 47.6472 0.316406 43.5005C0.316406 39.4758 3.25439 36.4407 7.15022 36.4407C8.88363 36.4407 10.252 36.8995 11.2933 37.5364C12.336 36.9018 13.6908 36.4407 15.3771 36.4407C19.2731 36.4407 22.2109 39.4758 22.2109 43.5005C22.2109 47.6473 18.8392 50.1464 16.1298 52.1544V52.1544ZM16.7702 43.5005C16.7702 42.4563 16.2754 41.8814 15.3771 41.8814C14.2944 41.8814 13.8524 42.3373 13.7083 42.5427C13.3169 43.5718 12.3832 44.1515 11.2744 44.1759C10.1859 44.2 9.24326 43.4664 8.79454 42.48C8.70817 42.3454 8.32528 41.8814 7.15022 41.8814C6.25195 41.8814 5.75712 42.4565 5.75712 43.5005C5.75712 44.9077 7.72965 46.3696 9.6373 47.7833C10.1814 48.1868 10.7332 48.5958 11.2637 49.0217C11.7941 48.5956 12.3458 48.1868 12.89 47.7833C14.7977 46.3696 16.7702 44.9077 16.7702 43.5005V43.5005ZM28.479 49.4079C30.6007 50.19 32.8392 50.5865 35.1326 50.5865C43.669 50.5865 48.539 45.1284 48.7422 44.8961C49.7312 43.7651 49.6158 42.0464 48.4847 41.0575C47.3534 40.0687 45.635 40.1838 44.6461 41.315C44.6127 41.3534 41.1293 45.1458 35.1326 45.1458C33.4834 45.1458 31.8779 44.8622 30.3607 44.3031C28.9516 43.7837 27.3871 44.5048 26.8674 45.9147C26.3478 47.3243 27.0694 48.8884 28.479 49.4079V49.4079ZM64.5394 22.3115C63.1213 22.8079 62.3742 24.3598 62.8705 25.778C63.96 28.8903 64.5124 32.1575 64.5124 35.4886C64.5124 38.184 64.1389 40.8622 63.4022 43.4485C62.9907 44.8934 63.8285 46.3984 65.2734 46.81C65.5224 46.8809 65.7732 46.9147 66.0198 46.9147C67.2046 46.9147 68.2942 46.1348 68.6349 44.9389C69.5097 41.8678 69.9531 38.6882 69.9531 35.4886C69.9531 31.5439 69.2979 27.672 68.0057 23.9803C67.5094 22.5624 65.9578 21.8151 64.5394 22.3115V22.3115ZM3.13021 31.7622C3.3122 31.7991 3.49324 31.8166 3.67197 31.8166C4.93979 31.8166 6.07472 30.9253 6.33547 29.6346C9.09024 16.0028 21.2013 6.10868 35.1326 6.10868C38.5723 6.10868 39.8874 6.40874 40.2933 6.53769C41.7251 6.99267 43.2545 6.20104 43.7099 4.76932C44.165 3.33746 43.3733 1.8078 41.9414 1.35268C40.492 0.891854 38.2649 0.667969 35.1326 0.667969C27.0479 0.667969 19.1704 3.50136 12.951 8.64637C6.81493 13.7224 2.57145 20.7935 1.00262 28.5569C0.705009 30.0295 1.65754 31.4646 3.13021 31.7622V31.7622ZM41.8575 64.0957C39.6673 64.6085 37.4048 64.8684 35.1326 64.8684C28.9714 64.8684 23.0745 62.9829 18.0791 59.4156C16.8565 58.5422 15.1575 58.8256 14.2845 60.0484C13.4113 61.271 13.6946 62.9699 14.9172 63.843C20.8407 68.0733 27.8309 70.3091 35.1326 70.3091C37.8218 70.3091 40.5015 70.0009 43.0977 69.3933C44.5606 69.0508 45.4689 67.5874 45.1264 66.1245C44.7838 64.6614 43.3202 63.7536 41.8575 64.0957Z" fill="#D8AAF8"/>
</g>
<defs>
<clipPath id="clip0_198_2">
<rect width="69.6412" height="69.6412" fill="white" transform="translate(0.316406 0.667969)"/>
</clipPath>
</defs>
</svg>
