<svg width="70" height="70" viewBox="0 0 70 70" fill="none" xmlns="http://www.w3.org/2000/svg">
<g clip-path="url(#clip0_198_23)">
<path d="M46.8299 44.6916C45.1799 44.6916 43.8375 43.5297 43.8375 42.1017C43.8375 40.6735 45.1799 39.5116 46.8299 39.5116C48.48 39.5116 49.8223 40.6735 49.8223 42.1017C49.8223 42.8528 50.4314 43.4618 51.1825 43.4618C51.9336 43.4618 52.5427 42.8528 52.5427 42.1017C52.5427 39.6091 50.6855 37.5134 48.1901 36.9446V36.2371C48.1901 35.486 47.581 34.877 46.8299 34.877C46.0788 34.877 45.4698 35.486 45.4698 36.2371V36.9446C42.9744 37.5134 41.1172 39.6091 41.1172 42.1017C41.1172 45.0297 43.6799 47.4119 46.8299 47.4119C48.48 47.4119 49.8223 48.5738 49.8223 50.002C49.8223 51.4302 48.48 52.592 46.8299 52.592C45.1799 52.592 43.8375 51.4302 43.8375 50.002C43.8375 49.2509 43.2285 48.6418 42.4774 48.6418C41.7263 48.6418 41.1172 49.2509 41.1172 50.002C41.1172 52.4945 42.9744 54.5903 45.4698 55.1591V55.7467C45.4698 56.4978 46.0788 57.1069 46.8299 57.1069C47.581 57.1069 48.1901 56.4978 48.1901 55.7467V55.1591C50.6855 54.5903 52.5427 52.4945 52.5427 50.002C52.5427 47.0738 49.98 44.6916 46.8299 44.6916Z" fill="#D8AAF8"/>
<path d="M61.7242 36.6155C59.9474 33.8468 57.4441 31.6314 54.4851 30.2089C53.8078 29.8833 52.9951 30.1684 52.6698 30.8455C52.3443 31.5226 52.6292 32.3351 53.3063 32.6606C58.4629 35.1394 61.7947 40.4358 61.7947 46.1537C61.7947 48.6004 61.1916 51.0268 60.0508 53.171C59.698 53.8341 59.9495 54.6578 60.6127 55.0106C60.8162 55.1189 61.0349 55.1703 61.2503 55.1703C61.737 55.1703 62.2078 54.9084 62.4523 54.4487C63.8017 51.9128 64.515 49.0444 64.515 46.1537C64.515 42.7587 63.55 39.4604 61.7242 36.6155Z" fill="#D8AAF8"/>
<path d="M48.9673 28.4708L48.8758 28.4707C48.1247 28.4707 47.5156 29.0797 47.5156 29.8309C47.5156 30.5821 48.1247 31.1911 48.8758 31.1911L48.9546 31.1912C48.9567 31.1912 48.9588 31.1912 48.9611 31.1912C49.7093 31.1912 50.3176 30.5865 50.3211 29.8374C50.3245 29.0862 49.7184 28.4744 48.9673 28.4708Z" fill="#D8AAF8"/>
<path d="M40.3609 59.6503C35.2045 57.1714 31.8727 51.875 31.8727 46.1572C31.8727 43.7105 32.4758 41.2841 33.6166 39.1399C33.9694 38.4768 33.7179 37.6531 33.0547 37.3003C32.3917 36.9475 31.5677 37.1989 31.2151 37.8622C29.8656 40.3982 29.1523 43.2666 29.1523 46.1572C29.1523 49.5522 30.1174 52.8504 31.9432 55.6954C33.72 58.4641 36.2232 60.6795 39.1823 62.1021C39.3723 62.1935 39.5731 62.2367 39.7707 62.2367C40.2772 62.2367 40.7634 61.9525 40.9976 61.4656C41.3228 60.7885 41.038 59.9758 40.3609 59.6503Z" fill="#D8AAF8"/>
<path d="M44.781 61.1057L44.7022 61.1055C43.9476 61.1041 43.3394 61.7079 43.336 62.4593C43.3324 63.2105 43.9388 63.8223 44.6899 63.8258L44.781 63.8261C45.5321 63.8261 46.1412 63.217 46.1412 62.4659C46.1412 61.7148 45.5321 61.1057 44.781 61.1057Z" fill="#D8AAF8"/>
<path d="M53.007 23.8554C52.8414 23.4609 52.6386 23.0892 52.4026 22.7444H55.9437C59.3937 22.7444 62.2005 19.9375 62.2005 16.4876C62.2005 13.0376 59.3937 10.2308 55.9437 10.2308H45.0514C45.7439 9.22397 46.1504 8.00593 46.1504 6.69431C46.1504 3.24436 43.3436 0.4375 39.8936 0.4375H6.56931C3.11936 0.4375 0.3125 3.24436 0.3125 6.69431C0.3125 10.1443 3.11936 12.9511 6.56931 12.9511H17.4616C16.7691 13.9579 16.3626 15.176 16.3626 16.4876C16.3626 17.7992 16.769 19.0172 17.4616 20.024H13.9143C10.4643 20.024 7.65745 22.8309 7.65745 26.2809C7.65745 28.2622 8.58428 30.0303 10.0262 31.1775C8.58428 32.3247 7.65745 34.0928 7.65745 36.0741C7.65745 38.0555 8.58428 39.8236 10.0262 40.9708C8.58428 42.1179 7.65745 43.886 7.65745 45.8674C7.65745 47.8488 8.58428 49.6169 10.0262 50.764C8.58428 51.9112 7.65745 53.6793 7.65745 55.6607C7.65745 59.1106 10.4643 61.9175 13.9143 61.9175H29.9439C34.1667 66.4342 40.1741 69.2626 46.8307 69.2626C59.5807 69.2626 69.9537 58.8896 69.9537 46.1396C69.9537 35.5279 62.7679 26.5642 53.007 23.8554ZM55.9437 12.9511C57.8938 12.9511 59.4802 14.5376 59.4802 16.4876C59.4802 18.4375 57.8938 20.024 55.9437 20.024H47.2386H22.6194C20.6693 20.024 19.0829 18.4375 19.0829 16.4876C19.0829 14.5376 20.6693 12.9511 22.6194 12.9511H55.9437ZM6.56931 10.2308C4.61923 10.2308 3.03285 8.64426 3.03285 6.69431C3.03285 4.74436 4.61923 3.15785 6.56931 3.15785H39.8936C41.8437 3.15785 43.4301 4.74436 43.4301 6.69431C43.4301 8.64426 41.8437 10.2308 39.8936 10.2308H6.56931ZM13.9143 22.7444H47.2386C47.7865 22.7444 48.3111 22.8717 48.7817 23.0997C48.1383 23.0457 47.4879 23.0166 46.8307 23.0166C40.4453 23.0166 34.6564 25.6184 30.4679 29.8173H13.9143C11.9643 29.8173 10.3778 28.2308 10.3778 26.2809C10.3778 24.3309 11.9643 22.7444 13.9143 22.7444ZM13.9143 32.5377H28.1438C26.5997 34.6531 25.4059 37.0392 24.6477 39.6106H13.9143C11.9642 39.6106 10.3778 38.0242 10.3778 36.0741C10.3778 34.1242 11.9642 32.5377 13.9143 32.5377ZM13.9143 42.3309H24.0231C23.8168 43.5705 23.7077 44.8424 23.7077 46.1396C23.7077 47.2476 23.7878 48.3371 23.9392 49.4039H13.9143C11.9642 49.4039 10.3778 47.8175 10.3778 45.8674C10.3778 43.9173 11.9642 42.3309 13.9143 42.3309ZM13.9143 59.1971C11.9642 59.1971 10.3778 57.6107 10.3778 55.6607C10.3778 53.7106 11.9642 52.1242 13.9143 52.1242H24.4945C25.1809 54.6831 26.2958 57.0679 27.758 59.1971H13.9143ZM46.8307 66.5422C35.5807 66.5422 26.428 57.3896 26.428 46.1396C26.428 34.8895 35.5807 25.7369 46.8307 25.7369C58.0807 25.7369 67.2333 34.8895 67.2333 46.1396C67.2333 57.3896 58.0807 66.5422 46.8307 66.5422Z" fill="#D8AAF8"/>
</g>
<defs>
<clipPath id="clip0_198_23">
<rect width="69.6412" height="69.6412" fill="white" transform="translate(0.316406 0.0292969)"/>
</clipPath>
</defs>
</svg>
