<svg width="70" height="70" viewBox="0 0 70 70" fill="none" xmlns="http://www.w3.org/2000/svg">
<g clip-path="url(#clip0_198_70)">
<path d="M64.6842 10.7634C54.5504 10.7634 41.2169 7.34382 36.4643 1.00837C35.832 0.238492 34.6955 0.127447 33.9256 0.759716C33.8348 0.8341 33.7514 0.917517 33.677 1.00837C28.9238 7.34329 15.5903 10.7634 5.45704 10.7634C4.49482 10.7634 3.71484 11.5434 3.71484 12.5056V35.1509C3.71484 54.306 20.3488 65.8537 34.5924 69.9225C34.9048 70.0134 35.2364 70.0134 35.5488 69.9225C49.7924 65.8537 66.4264 54.306 66.4264 35.1509V12.5056C66.4264 11.5434 65.6464 10.7634 64.6842 10.7634ZM62.942 35.1509C62.942 52.1558 48.0401 62.5802 35.0706 66.4355C22.1011 62.5802 7.1987 52.1558 7.1987 35.1509V14.217C17.2677 13.8764 29.1746 10.6306 35.0706 4.70051C40.9672 10.6306 52.8735 13.8764 62.9425 14.2164V35.1509H62.942Z" fill="#D8AAF8"/>
<path d="M28.1055 28.1669V31.6508H26.3633C25.4011 31.6508 24.6211 32.4308 24.6211 33.393V47.3285C24.6211 48.2907 25.4011 49.0707 26.3633 49.0707H43.7832C44.7454 49.0707 45.5254 48.2907 45.5254 47.3285V33.393C45.5254 32.4308 44.7454 31.6508 43.7832 31.6508H42.041V28.1669C42.041 24.3186 38.9216 21.1992 35.0732 21.1992C31.2249 21.1992 28.1055 24.3186 28.1055 28.1669ZM42.041 45.5868H28.1055V35.1347H42.041V45.5868ZM38.5571 28.1669V31.6508H31.5894V28.1669C31.5894 26.243 33.1488 24.6831 35.0732 24.6831C36.9971 24.6831 38.5571 26.243 38.5571 28.1669Z" fill="#D8AAF8"/>
</g>
<defs>
<clipPath id="clip0_198_70">
<rect width="69.6412" height="69.6412" fill="white" transform="translate(0.316406 0.349609)"/>
</clipPath>
</defs>
</svg>
