<svg width="70" height="70" viewBox="0 0 70 70" fill="none" xmlns="http://www.w3.org/2000/svg">
<g clip-path="url(#clip0_198_92)">
<path d="M60.3058 28.8186H60.1334V24.5953C60.1334 11.0289 49.1358 0.03125 35.5693 0.03125C22.0029 0.03125 11.0053 11.0289 11.0053 24.5953V28.8186H9.97111C6.17873 28.8186 3.24833 32.1799 3.24833 36.0585V46.8322C3.15282 50.5914 6.12297 53.7163 9.88219 53.8118C9.91189 53.8127 9.94142 53.8131 9.97111 53.8135H16.3491C17.2525 53.7711 17.9505 53.0041 17.9079 52.1007C17.9064 52.0682 17.904 52.0357 17.9005 52.0034V30.887C17.9005 29.8528 17.2972 28.8184 16.3491 28.8184H14.4529V24.5951C14.4529 12.9329 23.9071 3.47867 35.5693 3.47867C47.2316 3.47867 56.6858 12.9329 56.6858 24.5951V28.8184H54.7896C53.8415 28.8184 53.2382 29.8526 53.2382 30.887V52.0034C53.142 52.9027 53.793 53.7097 54.6923 53.8059C54.7246 53.8094 54.7571 53.8118 54.7896 53.8133H56.7719L56.5995 54.0718C54.0132 57.509 49.9549 59.5222 45.6534 59.5017C44.7118 54.8843 40.2051 51.9044 35.5877 52.8462C31.639 53.6515 28.7921 57.1096 28.7603 61.1394C28.8075 65.8658 32.6526 69.6724 37.3793 69.6721C39.7191 69.6341 41.9493 68.674 43.5848 67.0002C44.6883 65.8701 45.4114 64.4238 45.6534 62.863C51.0401 62.8835 56.1201 60.3594 59.3575 56.0541L60.9952 53.6408C64.7013 53.3822 67.0284 51.0551 67.0284 47.6937V36.92C67.0285 33.2142 64.2705 28.8186 60.3058 28.8186ZM14.4529 50.3659H9.97111C8.11518 50.3207 6.64726 48.7797 6.69246 46.9237C6.69328 46.8932 6.69444 46.8627 6.69592 46.832V36.0584C6.69592 34.076 8.07492 32.266 9.97111 32.266H14.4529V50.3659ZM41.0855 64.5871C40.1303 65.6228 38.7883 66.2159 37.3794 66.2248C34.5752 66.1803 32.2996 63.9426 32.208 61.1396C32.2069 58.3311 34.4827 56.0535 37.2912 56.0523C40.0996 56.0512 42.3773 58.327 42.3784 61.1354C42.3784 61.1368 42.3784 61.1382 42.3784 61.1396C42.4502 62.4192 41.981 63.6702 41.0855 64.5871ZM63.581 47.694C63.581 50.0211 61.34 50.3659 60.3058 50.3659H56.6858V32.2661H60.3058C62.202 32.2661 63.581 34.938 63.581 36.9203V47.694Z" fill="#D8AAF8"/>
</g>
<defs>
<clipPath id="clip0_198_92">
<rect width="69.6412" height="69.6412" fill="white" transform="translate(0.316406 0.03125)"/>
</clipPath>
</defs>
</svg>
